name ./resultDataOpenSim/trcMotMarkerGrf/sub06/grf-05-07.mot
datacolumns 19
datarows 22
range 0.53200000 0.61600000
endheader

                time	     ground_force_vx	     ground_force_vy	     ground_force_vz	     ground_force_px	     ground_force_py	     ground_force_pz	   l_ground_force_vx	   l_ground_force_vy	   l_ground_force_vz	   l_ground_force_px	   l_ground_force_py	   l_ground_force_pz	     ground_torque_x	     ground_torque_y	     ground_torque_z	   l_ground_torque_x	   l_ground_torque_y	   l_ground_torque_z	
          0.53200000	         90.41983282	        564.82956911	        -35.36582430	         -0.79517017	          0.00000000	          0.12487212	          0.00000000	          0.00000000	          0.00000000	          0.00000000	          0.00000000	          0.00000000	          0.00000000	          0.82524156	          0.00000000	          0.00000000	          0.00000000	          0.00000000	
          0.53600000	         94.74546246	        579.35914456	        -35.67982721	         -0.79322615	          0.00000000	          0.12502008	          0.00000000	          0.00000000	          0.00000000	          0.00000000	          0.00000000	          0.00000000	          0.00000000	          0.83736497	          0.00000000	          0.00000000	          0.00000000	          0.00000000	
          0.54000000	         99.41268847	        593.89847648	        -35.74987225	         -0.79149103	          0.00000000	          0.12509610	          0.00000000	          0.00000000	          0.00000000	          0.00000000	          0.00000000	          0.00000000	          0.00000000	          0.87146307	          0.00000000	          0.00000000	          0.00000000	          0.00000000	
          0.54400000	        104.35529836	        608.33113793	        -35.67225175	         -0.78995133	          0.00000000	          0.12510604	          0.00000000	          0.00000000	          0.00000000	          0.00000000	          0.00000000	          0.00000000	          0.00000000	          0.92318670	          0.00000000	          0.00000000	          0.00000000	          0.00000000	
          0.54800000	        109.55219269	        622.51028458	        -35.54814576	         -0.78859489	          0.00000000	          0.12505609	          0.00000000	          0.00000000	          0.00000000	          0.00000000	          0.00000000	          0.00000000	          0.00000000	          0.98515072	          0.00000000	          0.00000000	          0.00000000	          0.00000000	
          0.55200000	        115.02616678	        636.27355453	        -35.46191560	         -0.78740922	          0.00000000	          0.12495151	          0.00000000	          0.00000000	          0.00000000	          0.00000000	          0.00000000	          0.00000000	          0.00000000	          1.04852042	          0.00000000	          0.00000000	          0.00000000	          0.00000000	
          0.55600000	        120.83008311	        649.46423464	        -35.46127275	         -0.78637828	          0.00000000	          0.12479950	          0.00000000	          0.00000000	          0.00000000	          0.00000000	          0.00000000	          0.00000000	          0.00000000	          1.10516106	          0.00000000	          0.00000000	          0.00000000	          0.00000000	
          0.56000000	        127.02374658	        661.93967089	        -35.54678421	         -0.78548345	          0.00000000	          0.12461238	          0.00000000	          0.00000000	          0.00000000	          0.00000000	          0.00000000	          0.00000000	          0.00000000	          1.14967672	          0.00000000	          0.00000000	          0.00000000	          0.00000000	
          0.56400000	        133.64640998	        673.56659677	        -35.67532944	         -0.78470805	          0.00000000	          0.12440337	          0.00000000	          0.00000000	          0.00000000	          0.00000000	          0.00000000	          0.00000000	          0.00000000	          1.18066702	          0.00000000	          0.00000000	          0.00000000	          0.00000000	
          0.56800000	        140.69590199	        684.21577601	        -35.77503986	         -0.78403928	          0.00000000	          0.12417917	          0.00000000	          0.00000000	          0.00000000	          0.00000000	          0.00000000	          0.00000000	          0.00000000	          1.20076336	          0.00000000	          0.00000000	          0.00000000	          0.00000000	
          0.57200000	        148.12309027	        693.76086080	        -35.76651385	         -0.78346427	          0.00000000	          0.12394023	          0.00000000	          0.00000000	          0.00000000	          0.00000000	          0.00000000	          0.00000000	          0.00000000	          1.21539485	          0.00000000	          0.00000000	          0.00000000	          0.00000000	
          0.57600000	        155.83982933	        702.08143062	        -35.58508822	         -0.78296008	          0.00000000	          0.12368838	          0.00000000	          0.00000000	          0.00000000	          0.00000000	          0.00000000	          0.00000000	          0.00000000	          1.23065978	          0.00000000	          0.00000000	          0.00000000	          0.00000000	
          0.58000000	        163.73141620	        709.07120586	        -35.19836317	         -0.78248925	          0.00000000	          0.12343238	          0.00000000	          0.00000000	          0.00000000	          0.00000000	          0.00000000	          0.00000000	          0.00000000	          1.25098770	          0.00000000	          0.00000000	          0.00000000	          0.00000000	
          0.58400000	        171.66657726	        714.65192640	        -34.61550827	         -0.78201696	          0.00000000	          0.12318330	          0.00000000	          0.00000000	          0.00000000	          0.00000000	          0.00000000	          0.00000000	          0.00000000	          1.27733913	          0.00000000	          0.00000000	          0.00000000	          0.00000000	
          0.58800000	        179.50610351	        718.78038908	        -33.88661955	         -0.78152512	          0.00000000	          0.12294667	          0.00000000	          0.00000000	          0.00000000	          0.00000000	          0.00000000	          0.00000000	          0.00000000	          1.30648644	          0.00000000	          0.00000000	          0.00000000	          0.00000000	
          0.59200000	        187.11542446	        721.43854575	        -33.09160952	         -0.78099700	          0.00000000	          0.12272511	          0.00000000	          0.00000000	          0.00000000	          0.00000000	          0.00000000	          0.00000000	          0.00000000	          1.33155292	          0.00000000	          0.00000000	          0.00000000	          0.00000000	
          0.59600000	        194.37782513	        722.61931700	        -32.32455117	         -0.78041574	          0.00000000	          0.12252161	          0.00000000	          0.00000000	          0.00000000	          0.00000000	          0.00000000	          0.00000000	          0.00000000	          1.34361000	          0.00000000	          0.00000000	          0.00000000	          0.00000000	
          0.60000000	        201.19678724	        722.32162600	        -31.67774293	         -0.77977189	          0.00000000	          0.12233923	          0.00000000	          0.00000000	          0.00000000	          0.00000000	          0.00000000	          0.00000000	          0.00000000	          1.33386226	          0.00000000	          0.00000000	          0.00000000	          0.00000000	
          0.60400000	        207.48707069	        720.55614967	        -31.22217529	         -0.77906237	          0.00000000	          0.12217997	          0.00000000	          0.00000000	          0.00000000	          0.00000000	          0.00000000	          0.00000000	          0.00000000	          1.29582802	          0.00000000	          0.00000000	          0.00000000	          0.00000000	
          0.60800000	        213.16909154	        717.35036388	        -30.98773736	         -0.77830185	          0.00000000	          0.12204026	          0.00000000	          0.00000000	          0.00000000	          0.00000000	          0.00000000	          0.00000000	          0.00000000	          1.22695561	          0.00000000	          0.00000000	          0.00000000	          0.00000000	
          0.61200000	        218.17510806	        712.73926525	        -30.95312445	         -0.77750636	          0.00000000	          0.12191431	          0.00000000	          0.00000000	          0.00000000	          0.00000000	          0.00000000	          0.00000000	          0.00000000	          1.12930356	          0.00000000	          0.00000000	          0.00000000	          0.00000000	
          0.61600000	        222.45894468	        706.74984315	        -31.04815964	         -0.77669774	          0.00000000	          0.12178538	          0.00000000	          0.00000000	          0.00000000	          0.00000000	          0.00000000	          0.00000000	          0.00000000	          1.00917942	          0.00000000	          0.00000000	          0.00000000	          0.00000000	
